<svg xmlns="http://www.w3.org/2000/svg" width="24" height="25" viewBox="0 0 24 25" fill="none">
  <path d="M3 7.9375H21C21.2652 7.9375 21.5196 7.83214 21.7071 7.64461C21.8946 7.45707 22 7.20272 22 6.9375C22 6.67228 21.8946 6.41793 21.7071 6.23039C21.5196 6.04286 21.2652 5.9375 21 5.9375H3C2.73478 5.9375 2.48043 6.04286 2.29289 6.23039C2.10536 6.41793 2 6.67228 2 6.9375C2 7.20272 2.10536 7.45707 2.29289 7.64461C2.48043 7.83214 2.73478 7.9375 3 7.9375ZM21 17.9375H7C6.73478 17.9375 6.48043 18.0429 6.29289 18.2304C6.10536 18.4179 6 18.6723 6 18.9375C6 19.2027 6.10536 19.4571 6.29289 19.6446C6.48043 19.8321 6.73478 19.9375 7 19.9375H21C21.2652 19.9375 21.5196 19.8321 21.7071 19.6446C21.8946 19.4571 22 19.2027 22 18.9375C22 18.6723 21.8946 18.4179 21.7071 18.2304C21.5196 18.0429 21.2652 17.9375 21 17.9375ZM21 9.9375H7C6.73478 9.9375 6.48043 10.0429 6.29289 10.2304C6.10536 10.4179 6 10.6723 6 10.9375C6 11.2027 6.10536 11.4571 6.29289 11.6446C6.48043 11.8321 6.73478 11.9375 7 11.9375H21C21.2652 11.9375 21.5196 11.8321 21.7071 11.6446C21.8946 11.4571 22 11.2027 22 10.9375C22 10.6723 21.8946 10.4179 21.7071 10.2304C21.5196 10.0429 21.2652 9.9375 21 9.9375ZM21 13.9375H3C2.73478 13.9375 2.48043 14.0429 2.29289 14.2304C2.10536 14.4179 2 14.6723 2 14.9375C2 15.2027 2.10536 15.4571 2.29289 15.6446C2.48043 15.8321 2.73478 15.9375 3 15.9375H21C21.2652 15.9375 21.5196 15.8321 21.7071 15.6446C21.8946 15.4571 22 15.2027 22 14.9375C22 14.6723 21.8946 14.4179 21.7071 14.2304C21.5196 14.0429 21.2652 13.9375 21 13.9375Z" fill="white"/>
</svg>