<svg xmlns="http://www.w3.org/2000/svg" width="36" height="36" viewBox="0 0 36 36" fill="none">
  <path d="M23.31 16.935L14.82 8.45999C14.6805 8.3194 14.5146 8.20781 14.3318 8.13166C14.149 8.0555 13.953 8.0163 13.755 8.0163C13.557 8.0163 13.3609 8.0555 13.1781 8.13166C12.9953 8.20781 12.8294 8.3194 12.69 8.45999C12.4106 8.74104 12.2538 9.12122 12.2538 9.51749C12.2538 9.91377 12.4106 10.294 12.69 10.575L20.115 18.075L12.69 25.5C12.4106 25.781 12.2538 26.1612 12.2538 26.5575C12.2538 26.9538 12.4106 27.334 12.69 27.615C12.8289 27.7567 12.9946 27.8695 13.1774 27.9467C13.3602 28.024 13.5565 28.0642 13.755 28.065C13.9534 28.0642 14.1498 28.024 14.3326 27.9467C14.5154 27.8695 14.6811 27.7567 14.82 27.615L23.31 19.14C23.4622 18.9995 23.5837 18.8291 23.6669 18.6393C23.75 18.4496 23.7929 18.2446 23.7929 18.0375C23.7929 17.8303 23.75 17.6254 23.6669 17.4357C23.5837 17.2459 23.4622 17.0755 23.31 16.935Z" fill="white"/>
</svg>