<svg xmlns="http://www.w3.org/2000/svg" width="24" height="25" viewBox="0 0 24 25" fill="none">
  <g clip-path="url(#clip0_1_36)">
    <path d="M23.7068 23.2312L17.7378 17.2622C19.3644 15.2728 20.1642 12.7343 19.9716 10.1718C19.7791 7.60924 18.609 5.21874 16.7034 3.49473C14.7977 1.77072 12.3024 0.845097 9.73342 0.909329C7.16447 0.973561 4.71849 2.02273 2.9014 3.83982C1.08431 5.65691 0.0351379 8.1029 -0.029094 10.6718C-0.0933258 13.2408 0.832293 15.7362 2.5563 17.6418C4.28031 19.5474 6.67081 20.7175 9.23334 20.9101C11.7959 21.1026 14.3344 20.3028 16.3238 18.6762L22.2928 24.6452C22.4814 24.8274 22.734 24.9282 22.9962 24.9259C23.2584 24.9236 23.5092 24.8184 23.6946 24.633C23.88 24.4476 23.9852 24.1968 23.9875 23.9346C23.9897 23.6724 23.8889 23.4198 23.7068 23.2312ZM9.99978 18.9382C8.41753 18.9382 6.87081 18.469 5.55522 17.59C4.23963 16.7109 3.21425 15.4615 2.60875 13.9997C2.00324 12.5379 1.84482 10.9293 2.1535 9.37748C2.46218 7.82563 3.22411 6.40017 4.34293 5.28135C5.46175 4.16253 6.88721 3.4006 8.43906 3.09192C9.99091 2.78324 11.5994 2.94167 13.0613 3.54717C14.5231 4.15267 15.7725 5.17805 16.6515 6.49364C17.5306 7.80924 17.9998 9.35596 17.9998 10.9382C17.9974 13.0592 17.1538 15.0927 15.654 16.5924C14.1542 18.0922 12.1208 18.9358 9.99978 18.9382Z" fill="white"/>
  </g>
  <defs>
    <clipPath id="clip0_1_36">
      <rect width="24" height="24" fill="white" transform="translate(0 0.9375)"/>
    </clipPath>
  </defs>
</svg>