<svg xmlns="http://www.w3.org/2000/svg" width="24" height="25" viewBox="0 0 24 25" fill="none">
  <g clip-path="url(#clip0_1_37)">
    <path d="M22.713 5.0145C22.4317 4.67694 22.0796 4.40545 21.6815 4.21932C21.2835 4.03318 20.8494 3.93696 20.41 3.9375H4.242L4.2 3.5865C4.11405 2.85692 3.76338 2.18423 3.21449 1.69598C2.6656 1.20772 1.95663 0.937842 1.222 0.9375L1 0.9375C0.734784 0.9375 0.48043 1.04286 0.292893 1.23039C0.105357 1.41793 0 1.67228 0 1.9375C0 2.20272 0.105357 2.45707 0.292893 2.64461C0.48043 2.83214 0.734784 2.9375 1 2.9375H1.222C1.46693 2.93753 1.70334 3.02746 1.88637 3.19022C2.06941 3.35297 2.18634 3.57725 2.215 3.8205L3.591 15.5205C3.73385 16.7373 4.31848 17.8593 5.23391 18.6735C6.14934 19.4877 7.33185 19.9375 8.557 19.9375H19C19.2652 19.9375 19.5196 19.8321 19.7071 19.6446C19.8946 19.4571 20 19.2027 20 18.9375C20 18.6723 19.8946 18.4179 19.7071 18.2304C19.5196 18.0429 19.2652 17.9375 19 17.9375H8.557C7.93806 17.9358 7.3348 17.7426 6.82994 17.3846C6.32507 17.0265 5.94331 16.521 5.737 15.9375H17.657C18.8293 15.9376 19.9643 15.5257 20.8638 14.7739C21.7633 14.0221 22.37 12.9782 22.578 11.8245L23.363 7.4705C23.4414 7.03851 23.4237 6.59457 23.3114 6.17014C23.1991 5.74571 22.9948 5.35118 22.713 5.0145ZM21.4 7.1155L20.614 11.4695C20.4891 12.1625 20.1245 12.7895 19.5839 13.2407C19.0433 13.6919 18.3612 13.9386 17.657 13.9375H5.419L4.478 5.9375H20.41C20.5569 5.93662 20.7022 5.96812 20.8355 6.02976C20.9689 6.09139 21.087 6.18165 21.1815 6.29411C21.276 6.40657 21.3446 6.53847 21.3824 6.68044C21.4201 6.8224 21.4262 6.97094 21.4 7.1155Z" fill="white"/>
    <path d="M7.00012 24.9381C8.10469 24.9381 9.00011 24.0427 9.00011 22.9381C9.00011 21.8336 8.10469 20.9381 7.00012 20.9381C5.89555 20.9381 5.00012 21.8336 5.00012 22.9381C5.00012 24.0427 5.89555 24.9381 7.00012 24.9381Z" fill="white"/>
    <path d="M17 24.9381C18.1046 24.9381 19 24.0427 19 22.9381C19 21.8336 18.1046 20.9381 17 20.9381C15.8954 20.9381 15 21.8336 15 22.9381C15 24.0427 15.8954 24.9381 17 24.9381Z" fill="white"/>
  </g>
  <defs>
    <clipPath id="clip0_1_37">
      <rect width="24" height="24" fill="white" transform="translate(0 0.9375)"/>
    </clipPath>
  </defs>
</svg>