<svg xmlns="http://www.w3.org/2000/svg" width="24" height="25" viewBox="0 0 24 25" fill="none">
  <path d="M15.71 13.6475C16.6904 12.8762 17.406 11.8184 17.7572 10.6214C18.1085 9.42447 18.0779 8.14777 17.6698 6.96897C17.2617 5.79017 16.4963 4.76789 15.4801 4.04436C14.4639 3.32082 13.2474 2.93201 12 2.93201C10.7525 2.93201 9.53611 3.32082 8.51993 4.04436C7.50374 4.76789 6.73834 5.79017 6.33021 6.96897C5.92208 8.14777 5.89151 9.42447 6.24276 10.6214C6.59401 11.8184 7.3096 12.8762 8.29 13.6475C6.61007 14.3205 5.14428 15.4369 4.04889 16.8774C2.95349 18.318 2.26956 20.0288 2.07 21.8275C2.05555 21.9588 2.06711 22.0917 2.10402 22.2186C2.14093 22.3454 2.20246 22.4638 2.28511 22.5668C2.45202 22.775 2.69478 22.9083 2.96 22.9375C3.22521 22.9667 3.49116 22.8893 3.69932 22.7224C3.90749 22.5555 4.04082 22.3127 4.07 22.0475C4.28958 20.0927 5.22168 18.2873 6.68822 16.9763C8.15475 15.6653 10.0529 14.9405 12.02 14.9405C13.9871 14.9405 15.8852 15.6653 17.3518 16.9763C18.8183 18.2873 19.7504 20.0927 19.97 22.0475C19.9972 22.2932 20.1144 22.5202 20.2991 22.6845C20.4838 22.8489 20.7228 22.939 20.97 22.9375H21.08C21.3421 22.9073 21.5817 22.7748 21.7466 22.5688C21.9114 22.3627 21.9881 22.0999 21.96 21.8375C21.7595 20.0337 21.0719 18.3185 19.9708 16.8757C18.8698 15.4329 17.3969 14.317 15.71 13.6475ZM12 12.9375C11.2089 12.9375 10.4355 12.7029 9.77772 12.2634C9.11992 11.8239 8.60723 11.1991 8.30448 10.4682C8.00173 9.73733 7.92251 8.93307 8.07686 8.15714C8.2312 7.38122 8.61216 6.66849 9.17157 6.10908C9.73098 5.54967 10.4437 5.1687 11.2196 5.01436C11.9956 4.86002 12.7998 4.93923 13.5307 5.24198C14.2616 5.54474 14.8863 6.05743 15.3259 6.71522C15.7654 7.37302 16 8.14638 16 8.9375C16 9.99837 15.5786 11.0158 14.8284 11.7659C14.0783 12.5161 13.0609 12.9375 12 12.9375Z" fill="white"/>
</svg>